<?xml version="1.0" encoding="UTF-8"?>
<!DOCTYPE svg PUBLIC "-//W3C//DTD SVG 1.1//EN" "http://www.w3.org/Graphics/SVG/1.1/DTD/svg11.dtd">
<svg xmlns="http://www.w3.org/2000/svg" version="1.1" width="172px" height="30px" style="shape-rendering:geometricPrecision; text-rendering:geometricPrecision; image-rendering:optimizeQuality; fill-rule:evenodd; clip-rule:evenodd" xmlns:xlink="http://www.w3.org/1999/xlink">
<g><path style="opacity:0.614" fill="#cfac61" d="M 5.5,-0.5 C 6.5,-0.5 7.5,-0.5 8.5,-0.5C 8.20414,1.40301 7.53747,3.06967 6.5,4.5C 6.3399,0.763562 5.50657,0.763562 4,4.5C 3.61742,3.94404 3.11742,3.61071 2.5,3.5C 3.14702,1.85946 4.14702,0.526127 5.5,-0.5 Z"/></g>
<g><path style="opacity:0.486" fill="#cdab60" d="M 17.5,6.5 C 16.8333,6.16667 16.1667,5.83333 15.5,5.5C 14.7659,4.29208 14.4326,2.95875 14.5,1.5C 15.5,1.5 16.5,1.5 17.5,1.5C 17.5,3.16667 17.5,4.83333 17.5,6.5 Z"/></g>
<g><path style="opacity:0.765" fill="#cda95a" d="M 24.5,-0.5 C 25.1667,-0.5 25.8333,-0.5 26.5,-0.5C 29.6732,1.68102 31.6732,4.68102 32.5,8.5C 30.4444,9.62227 29.1111,11.2889 28.5,13.5C 28.4962,9.74981 27.4962,9.08314 25.5,11.5C 25.5,10.8333 25.1667,10.5 24.5,10.5C 24.9443,8.88682 25.9443,7.72015 27.5,7C 24.9586,5.15164 23.9586,2.65164 24.5,-0.5 Z"/></g>
<g><path style="opacity:0.777" fill="#fefffe" d="M 40.5,5.5 C 41.8734,5.34332 43.2068,5.50999 44.5,6C 45.9596,9.08874 47.793,11.9221 50,14.5C 50.498,11.5184 50.6646,8.51838 50.5,5.5C 52.1439,5.28649 53.6439,5.61983 55,6.5C 55.4995,12.4908 55.6662,18.4908 55.5,24.5C 53.8008,24.6602 52.1341,24.4935 50.5,24C 48.5421,21.2518 46.7088,18.4185 45,15.5C 44.502,18.4816 44.3354,21.4816 44.5,24.5C 42.8333,24.5 41.1667,24.5 39.5,24.5C 39.2088,18.077 39.5422,11.7436 40.5,5.5 Z"/></g>
<g><path style="opacity:0.781" fill="#fefffe" d="M 62.5,5.5 C 64.604,5.2011 66.604,5.53443 68.5,6.5C 70.7093,12.4612 72.7093,18.4612 74.5,24.5C 71.1304,24.2794 68.1304,23.2794 65.5,21.5C 62.8696,23.2794 59.8696,24.2794 56.5,24.5C 58.0939,18.0511 60.0939,11.7177 62.5,5.5 Z M 64.5,13.5 C 66.0481,13.8212 66.7148,14.8212 66.5,16.5C 65.448,16.6495 64.448,16.4828 63.5,16C 64.2524,15.3292 64.5858,14.4959 64.5,13.5 Z"/></g>
<g><path style="opacity:0.787" fill="#fefffe" d="M 75.5,5.5 C 77.288,5.21478 78.9547,5.54811 80.5,6.5C 81.8029,8.96762 83.3029,11.301 85,13.5C 86.1227,10.7513 87.6227,8.25131 89.5,6C 90.7932,5.50999 92.1266,5.34332 93.5,5.5C 93.5,11.8333 93.5,18.1667 93.5,24.5C 91.8333,24.5 90.1667,24.5 88.5,24.5C 88.6633,22.1432 88.4966,19.8098 88,17.5C 85.1399,21.5833 82.8065,21.25 81,16.5C 80.5026,19.146 80.3359,21.8127 80.5,24.5C 78.8333,24.5 77.1667,24.5 75.5,24.5C 75.5,18.1667 75.5,11.8333 75.5,5.5 Z"/></g>
<g><path style="opacity:0.788" fill="#fefffe" d="M 101.5,5.5 C 103.467,5.26057 105.301,5.59391 107,6.5C 109.546,12.3027 111.379,18.3027 112.5,24.5C 110.833,24.5 109.167,24.5 107.5,24.5C 107.5,23.5 107.5,22.5 107.5,21.5C 103.54,21.2977 100.04,22.2977 97,24.5C 96.1667,24.1667 95.3333,23.8333 94.5,23.5C 96.8414,17.4713 99.1747,11.4713 101.5,5.5 Z M 103.5,12.5 C 104.249,13.531 104.915,14.6976 105.5,16C 104.365,16.7494 103.365,16.5827 102.5,15.5C 103.127,14.5832 103.461,13.5832 103.5,12.5 Z"/></g>
<g><path style="opacity:0.803" fill="#fefffe" d="M 117.5,5.5 C 122.583,4.38584 126.249,6.0525 128.5,10.5C 125.198,11.2282 121.865,11.3949 118.5,11C 121.649,12.4964 124.816,13.9964 128,15.5C 128.667,17.8333 128.667,20.1667 128,22.5C 123.333,25.1667 118.667,25.1667 114,22.5C 113.51,21.2068 113.343,19.8734 113.5,18.5C 116.29,18.2224 118.79,18.8891 121,20.5C 122.059,20.3699 122.892,19.8699 123.5,19C 120,17.7241 116.833,15.8908 114,13.5C 112.78,9.70686 113.947,7.04019 117.5,5.5 Z"/></g>
<g><path style="opacity:0.812" fill="#fefffe" d="M 129.5,5.5 C 134.5,5.5 139.5,5.5 144.5,5.5C 144.5,7.16667 144.5,8.83333 144.5,10.5C 142.833,10.5 141.167,10.5 139.5,10.5C 139.5,15.1667 139.5,19.8333 139.5,24.5C 137.833,24.5 136.167,24.5 134.5,24.5C 134.5,19.8333 134.5,15.1667 134.5,10.5C 132.833,10.5 131.167,10.5 129.5,10.5C 129.5,8.83333 129.5,7.16667 129.5,5.5 Z"/></g>
<g><path style="opacity:0.809" fill="#fefffe" d="M 146.5,5.5 C 150.833,5.5 155.167,5.5 159.5,5.5C 159.5,7.16667 159.5,8.83333 159.5,10.5C 156.833,10.5 154.167,10.5 151.5,10.5C 151.5,11.5 151.5,12.5 151.5,13.5C 154.167,13.5 156.833,13.5 159.5,13.5C 159.5,14.8333 159.5,16.1667 159.5,17.5C 156.833,17.5 154.167,17.5 151.5,17.5C 151.5,18.5 151.5,19.5 151.5,20.5C 154.5,20.5 157.5,20.5 160.5,20.5C 160.67,21.8221 160.337,22.9887 159.5,24C 155.179,24.499 150.846,24.6657 146.5,24.5C 146.5,18.1667 146.5,11.8333 146.5,5.5 Z"/></g>
<g><path style="opacity:0.251" fill="#d1b16d" d="M 2.5,4.5 C 1.76589,5.70792 1.43255,7.04125 1.5,8.5C 0.833333,8.5 0.166667,8.5 -0.5,8.5C -0.5,8.16667 -0.5,7.83333 -0.5,7.5C 0.100078,6.09982 1.10008,5.09982 2.5,4.5 Z"/></g>
<g><path style="opacity:0.824" fill="#cba34e" d="M 6.5,4.5 C 6.67158,5.49162 6.33825,6.15829 5.5,6.5C 4.39514,7.60048 3.06181,8.26714 1.5,8.5C 1.43255,7.04125 1.76589,5.70792 2.5,4.5C 2.5,4.16667 2.5,3.83333 2.5,3.5C 3.11742,3.61071 3.61742,3.94404 4,4.5C 5.50657,0.763562 6.3399,0.763562 6.5,4.5 Z"/></g>
<g><path style="opacity:0.998" fill="#c79d40" d="M 15.5,5.5 C 16.1667,5.83333 16.8333,6.16667 17.5,6.5C 18.209,7.40397 19.209,7.73731 20.5,7.5C 20.5,8.16667 20.5,8.83333 20.5,9.5C 20.1667,10.1667 19.8333,10.8333 19.5,11.5C 19.7107,13.4241 20.3774,13.7574 21.5,12.5C 21.369,11.7611 21.5357,11.0944 22,10.5C 22.9772,11.7736 23.8106,11.7736 24.5,10.5C 25.1667,10.5 25.5,10.8333 25.5,11.5C 25.5,14.1667 25.5,16.8333 25.5,19.5C 19.5,19.5 13.5,19.5 7.5,19.5C 7.5,17.5 7.5,15.5 7.5,13.5C 7.26269,12.209 7.59603,11.209 8.5,10.5C 8.83333,10.5 9.16667,10.5 9.5,10.5C 10.1667,11.5 10.8333,12.5 11.5,13.5C 13.6977,13.5912 14.0311,12.9245 12.5,11.5C 12.6833,9.01222 13.6833,7.01222 15.5,5.5 Z M 12.5,11.5 C 14.0311,12.9245 13.6977,13.5912 11.5,13.5C 11.3284,12.5084 11.6618,11.8417 12.5,11.5 Z M 19.5,11.5 C 20.1667,11.8333 20.8333,12.1667 21.5,12.5C 20.3774,13.7574 19.7107,13.4241 19.5,11.5 Z"/></g>
<g><path style="opacity:0.671" fill="#cfac5f" d="M 20.5,7.5 C 19.209,7.73731 18.209,7.40397 17.5,6.5C 18.4959,6.58577 19.3292,6.25244 20,5.5C 20.4643,6.09442 20.631,6.76109 20.5,7.5 Z"/></g>
<g><path style="opacity:0.067" fill="#d2b26d" d="M 5.5,6.5 C 6.14702,8.14054 7.14702,9.47387 8.5,10.5C 7.59603,11.209 7.26269,12.209 7.5,13.5C 6.7677,12.1917 5.93436,10.8584 5,9.5C 4.61742,10.056 4.11742,10.3893 3.5,10.5C 2.83333,9.83333 2.16667,9.16667 1.5,8.5C 3.06181,8.26714 4.39514,7.60048 5.5,6.5 Z"/></g>
<g><path style="opacity:0.475" fill="#cca85b" d="M 15.5,5.5 C 13.6833,7.01222 12.6833,9.01222 12.5,11.5C 11.6618,11.8417 11.3284,12.5084 11.5,13.5C 10.8333,12.5 10.1667,11.5 9.5,10.5C 10.3818,8.91568 11.2152,7.24901 12,5.5C 13.1455,6.6843 14.3121,6.6843 15.5,5.5 Z"/></g>
<g><path style="opacity:0.525" fill="#ceab60" d="M 24.5,10.5 C 23.8106,11.7736 22.9772,11.7736 22,10.5C 21.5357,11.0944 21.369,11.7611 21.5,12.5C 20.8333,12.1667 20.1667,11.8333 19.5,11.5C 19.8333,10.8333 20.1667,10.1667 20.5,9.5C 21.9621,8.52909 23.2954,8.86242 24.5,10.5 Z"/></g>
<g><path style="opacity:0.435" fill="#cca85a" d="M -0.5,8.5 C 0.166667,8.5 0.833333,8.5 1.5,8.5C 2.16667,9.16667 2.83333,9.83333 3.5,10.5C 4.10978,11.391 4.44312,12.391 4.5,13.5C 1.51594,13.7868 0.182606,15.4535 0.5,18.5C 0.166667,18.5 -0.166667,18.5 -0.5,18.5C -0.5,15.1667 -0.5,11.8333 -0.5,8.5 Z"/></g>
<g><path style="opacity:0.718" fill="#c9a149" d="M 4.5,13.5 C 4.5,13.8333 4.5,14.1667 4.5,14.5C 3.56552,15.5676 3.23219,16.901 3.5,18.5C 2.5,18.5 1.5,18.5 0.5,18.5C 0.182606,15.4535 1.51594,13.7868 4.5,13.5 Z"/></g>
<g><path style="opacity:0.804" fill="#caa34f" d="M 32.5,8.5 C 32.665,11.8499 32.4983,15.1832 32,18.5C 31.7216,19.4158 31.2216,20.0825 30.5,20.5C 29.5,20.5 28.5,20.5 27.5,20.5C 27.8333,18.5 28.1667,16.5 28.5,14.5C 28.5,14.1667 28.5,13.8333 28.5,13.5C 29.1111,11.2889 30.4444,9.62227 32.5,8.5 Z"/></g>
<g><path style="opacity:0.533" fill="#cfaf65" d="M 28.5,14.5 C 28.1667,16.5 27.8333,18.5 27.5,20.5C 28.5,20.5 29.5,20.5 30.5,20.5C 30.573,22.0269 29.9063,23.0269 28.5,23.5C 28.1898,21.8564 27.1898,20.8564 25.5,20.5C 25.5,20.1667 25.5,19.8333 25.5,19.5C 26.3127,17.7392 27.3127,16.0725 28.5,14.5 Z"/></g>
<g><path style="opacity:0.471" fill="#cda95d" d="M 4.5,14.5 C 4.59225,16.8477 5.59225,18.5144 7.5,19.5C 8.54367,21.8429 10.2103,23.5095 12.5,24.5C 10.6916,24.4914 9.02494,24.9914 7.5,26C 9.93497,26.0748 10.6016,26.9081 9.5,28.5C 7.14484,27.4782 5.47817,25.8116 4.5,23.5C 2.46888,22.4613 1.13554,20.7946 0.5,18.5C 1.5,18.5 2.5,18.5 3.5,18.5C 3.23219,16.901 3.56552,15.5676 4.5,14.5 Z"/></g>
<g><path style="opacity:0.753" fill="#c89e42" d="M 4.5,23.5 C 3.97168,22.2794 3.30501,21.1127 2.5,20C 2.83333,19.8333 3.16667,19.6667 3.5,19.5C 4.2418,21.3497 5.2418,22.0164 6.5,21.5C 6.14451,22.5223 5.47784,23.189 4.5,23.5 Z"/></g>
<g><path style="opacity:0.818" fill="#c9a048" d="M 25.5,20.5 C 27.1898,20.8564 28.1898,21.8564 28.5,23.5C 27.8333,23.5 27.5,23.8333 27.5,24.5C 26.1266,24.3433 24.7932,24.51 23.5,25C 24.6956,25.6543 24.6956,26.1543 23.5,26.5C 19.8391,25.1766 19.5057,25.8433 22.5,28.5C 22.5,28.8333 22.5,29.1667 22.5,29.5C 22.1667,29.5 21.8333,29.5 21.5,29.5C 21.5,28.8333 21.1667,28.5 20.5,28.5C 19.8902,27.609 19.5569,26.609 19.5,25.5C 21.5193,23.8103 23.5193,22.1436 25.5,20.5 Z"/></g>
<g><path style="opacity:0.608" fill="#ccaa60" d="M 19.5,25.5 C 19.5569,26.609 19.8902,27.609 20.5,28.5C 19.8333,28.5 19.5,28.8333 19.5,29.5C 19.1667,29.5 18.8333,29.5 18.5,29.5C 18.5,28.1667 17.8333,27.5 16.5,27.5C 17.2905,26.5987 18.2905,25.9321 19.5,25.5 Z"/></g>
<g><path style="opacity:0.361" fill="#ccaa5d" d="M 27.5,24.5 C 26.1466,26.1827 24.4799,27.5161 22.5,28.5C 19.5057,25.8433 19.8391,25.1766 23.5,26.5C 24.6956,26.1543 24.6956,25.6543 23.5,25C 24.7932,24.51 26.1266,24.3433 27.5,24.5 Z"/></g>
<g><path style="opacity:0.886" fill="#c9a048" d="M 12.5,24.5 C 13.3382,24.8417 13.6716,25.5084 13.5,26.5C 13.1667,27.1667 12.8333,27.8333 12.5,28.5C 11.8333,28.5 11.5,28.8333 11.5,29.5C 10.8333,29.5 10.1667,29.5 9.5,29.5C 9.5,29.1667 9.5,28.8333 9.5,28.5C 10.6016,26.9081 9.93497,26.0748 7.5,26C 9.02494,24.9914 10.6916,24.4914 12.5,24.5 Z"/></g>
<g><path style="opacity:0.145" fill="#cead6a" d="M 13.5,26.5 C 14.4916,26.3284 15.1583,26.6618 15.5,27.5C 14.5,27.8333 13.8333,28.5 13.5,29.5C 13.1667,29.5 12.8333,29.5 12.5,29.5C 12.5,29.1667 12.5,28.8333 12.5,28.5C 12.8333,27.8333 13.1667,27.1667 13.5,26.5 Z"/></g>
<g><path style="opacity:0.943" fill="#c79c3e" d="M 15.5,27.5 C 15.8333,27.5 16.1667,27.5 16.5,27.5C 17.8333,27.5 18.5,28.1667 18.5,29.5C 16.8333,29.5 15.1667,29.5 13.5,29.5C 13.8333,28.5 14.5,27.8333 15.5,27.5 Z"/></g>
</svg>
